<?xml version="1.0" encoding="utf-8"?>
<!-- Generator: Adobe Illustrator 24.1.1, SVG Export Plug-In . SVG Version: 6.00 Build 0)  -->
<svg version="1.1" id="Layer_1" xmlns="http://www.w3.org/2000/svg" xmlns:xlink="http://www.w3.org/1999/xlink" x="0px" y="0px"
	 viewBox="0 0 258 240" style="enable-background:new 0 0 258 240;" xml:space="preserve">
<style type="text/css">
	.st0{fill:#136EF8;}
	.st1{fill:#60D0FF;}
	.st2{fill:#2D7FFF;}
	.st3{fill:#0047D8;}
</style>
<g>
	<path class="st0" d="M166.9,240c-3.7,0-7.6,0-11.7,0c-28.6,0-58,0-83.1,0l83.6-219C161,8.3,173.3,0,186.9,0H242
		c11.4,0,19.2,11.5,14.9,22.1l-73.7,206.5c-0.1,0.3-0.2,0.5-0.3,0.8c-1.7,4.1-5.1,7.5-9.2,9.2c-0.4,0.2-0.9,0.4-1.3,0.5
		c-0.4,0.1-0.9,0.3-1.4,0.4c-0.2,0.1-0.5,0.1-0.7,0.2c-0.5,0.1-0.9,0.2-1.4,0.2L166.9,240z"/>
	<path class="st1" d="M155.3,240c-28.6,0-58,0-83.1,0H59.6c-6.1-0.4-11.3-4.1-14-9.3l-1.1-2.8L1.2,102.3c-4.2-10.5,3.5-22,14.9-22
		h51.8c13.7,0,26.1,8.4,31.2,21.1L152,229c2.3,5.9,7.4,11,13.7,10.9L155.3,240L155.3,240z"/>
	<path class="st2" d="M152,229c2.3,5.8,7.3,10.9,13.5,10.9h-10.3c-28.6,0-58,0-83.1,0l40.4-105.9L152,229z"/>
	<path class="st3" d="M166.9,240h-1.5c-6.2-0.1-11.1-5.2-13.4-10.9l-39.4-94.9l18-47.2l27.2,132.8c0,0,1.2,15.6,14.4,19.4
		c-0.4,0.1-0.9,0.3-1.3,0.4c-0.2,0.1-0.5,0.1-0.7,0.2c-0.5,0.1-0.9,0.2-1.4,0.2L166.9,240z"/>
</g>
</svg>
